<?xml version="1.0" encoding="UTF-8" standalone="no"?>
<!-- Created with Inkscape (http://www.inkscape.org/) -->

<svg
   xmlns:dc="http://purl.org/dc/elements/1.1/"
   xmlns:cc="http://creativecommons.org/ns#"
   xmlns:rdf="http://www.w3.org/1999/02/22-rdf-syntax-ns#"
   xmlns:svg="http://www.w3.org/2000/svg"
   xmlns="http://www.w3.org/2000/svg"
   xmlns:xlink="http://www.w3.org/1999/xlink"
   xmlns:sodipodi="http://sodipodi.sourceforge.net/DTD/sodipodi-0.dtd"
   xmlns:inkscape="http://www.inkscape.org/namespaces/inkscape"
   width="600"
   height="600"
   viewBox="0 0 158.75 158.75001"
   version="1.1"
   id="svg8"
   inkscape:version="0.92.3 (2405546, 2018-03-11)"
   sodipodi:docname="blobbb.svg">
  <defs
     id="defs2">
    <linearGradient
       inkscape:collect="always"
       id="linearGradient842">
      <stop
         style="stop-color:#696969;stop-opacity:1;"
         offset="0"
         id="stop838" />
      <stop
         style="stop-color:#3a3a3a;stop-opacity:1"
         offset="1"
         id="stop840" />
    </linearGradient>
    <linearGradient
       inkscape:collect="always"
       xlink:href="#linearGradient842"
       id="linearGradient868"
       gradientUnits="userSpaceOnUse"
       gradientTransform="matrix(0.76847483,0,0,0.76847483,196.23548,344.55054)"
       x1="-360.93054"
       y1="153.37904"
       x2="-250.10944"
       y2="153.37904" />
    <pattern
       patternUnits="userSpaceOnUse"
       width="1378.7465"
       height="1026.438"
       patternTransform="matrix(0.26458334,0,0,0.26458334,-112.43606,94.650574)"
       id="pattern891">
      <path
         style="fill:#282828;fill-opacity:1;stroke:none;stroke-width:0.32008994px;stroke-linecap:butt;stroke-linejoin:miter;stroke-opacity:1"
         d="m 480.50604,8.9049835 c -2.15433,0.037795 -4.17864,1.9158045 -3.84529,5.2236855 0.6274,6.226605 2.41549,28.914617 0.38551,30.139184 -2.28548,1.378885 -17.05134,-22.658041 -20.43024,-27.618353 -3.50929,-5.152063 -10.95912,-0.634469 -7.71363,4.898366 3.1234,5.324145 19.48044,30.996699 16.71533,33.000793 -2.7651,2.004057 -29.98034,-15.686702 -34.21719,-16.358815 -4.23685,-0.672152 -4.04448,3.971716 -1.91925,5.492749 2.12523,1.521033 29.83522,17.551861 28.90469,19.696743 -0.93051,2.14492 -19.45284,-1.602595 -25.53599,-2.78502 -6.08315,-1.182426 -7.95175,7.421858 -0.45997,8.329058 7.49178,0.9072 19.36289,4.206954 24.78047,7.476132 5.41758,3.269216 10.05808,8.057839 19.2325,13.089033 9.17405,5.031156 17.1103,18.038511 27.67975,32.257061 10.56907,14.21854 89.24681,130.94033 87.54898,142.11858 -1.69783,11.17826 -23.02198,20.55254 -24.89095,62.89622 -1.86896,42.34363 29.79866,82.62565 32.1998,105.0754 5.14469,30.68065 -26.30627,65.09249 -23.5064,122.06207 2.57537,52.39702 26.82355,115.26984 43.49026,132.85489 13.06127,13.78091 28.12101,29.33956 87.42597,28.65872 56.62076,0.68704 96.32399,1.24679 134.45372,6.87821 20.65833,-0.43189 50.60961,43.01091 62.88707,37.96875 12.2773,-5.04215 -10.83935,-70.49076 -28.85998,-88.40035 -13.26346,-13.18174 -20.49937,-3.21623 -26.66064,0.11377 -4.8935,2.64472 -12.7471,10.61022 -22.28938,8.03217 -59.80655,-16.15782 -88.45325,-17.49146 -88.45325,-17.49146 0,0 32.2283,-10.2248 65.8169,-31.74671 33.58855,-21.52192 66.7288,-45.1714 80.42411,-45.28377 13.69531,-0.11263 58.37866,26.70104 71.97808,15.48231 11.33321,-9.34923 -32.22376,-56.3955 -48.29484,-67.94854 -16.07119,-11.55299 -22.59424,-3.61542 -27.55771,4.07736 -4.9635,7.69292 -8.26027,13.36781 -16.20397,17.22364 -7.94362,3.85584 -45.03938,15.37739 -71.59137,20.91024 -26.55198,5.53285 -62.03494,25.14777 -62.03494,25.14777 8.56774,-26.12708 26.65686,-51.41669 24.03595,-95.93654 -2.62092,-44.51989 -38.74095,-77.10089 -40.37239,-124.68612 -0.57161,-16.67335 7.51964,-31.43558 13.3197,-43.26611 4.42825,-9.0325 43.49152,-20.37089 43.49152,-20.37089 L 758.1631,305.07823 c -1.20423,-1.08268 16.0131,1.68064 16.99033,0.58125 0.50843,-0.57203 -5.16136,-3.80266 -7.9847,-6.41488 -3.25916,-3.01545 -3.41979,-7.27634 -3.41979,-7.27634 0,0 1.60161,-1.55894 2.30532,-2.27248 13.1057,-13.28867 111.64439,-69.29412 184.63228,-100.28916 11.44883,-0.39832 18.34511,-2.7939 25.25295,-3.32062 6.90762,-0.52675 20.14039,2.09708 27.91231,4.90175 7.7718,2.80464 10.1842,-6.52963 3.6541,-8.37105 -6.5301,-1.84146 -26.48559,-7.3042 -26.33845,-9.8598 0.14702,-2.55561 35.13835,-4.57455 37.96565,-5.01449 2.8274,-0.4399 5.3036,-4.88595 0.83,-6.31654 -4.4736,-1.43055 -39.79881,2.45624 -41.51476,-0.86566 -1.71598,-3.32186 26.92626,-20.36292 32.60326,-24.0294 5.8996,-3.81018 0.8419,-11.89735 -5.1281,-8.58947 -5.7478,3.18474 -32.02809,19.4101 -33.58318,16.93572 -1.38096,-2.1973 11.5468,-23.49849 15.22832,-29.27713 3.68149,-5.77863 -3.30183,-10.72373 -7.76999,-4.81988 -1.04394,1.37946 -23.52729,34.22703 -26.97985,32.82724 -4.68174,-1.89808 2.71563,-12.47871 3.86385,-17.47 1.14814,-4.99135 0.831,-6.85527 -0.6584,-9.39798 -1.48928,-2.54264 -8.14628,3.37837 -10.73359,9.42709 -2.58735,6.04871 -6.82938,9.5865 -8.47812,16.30915 -1.6489,6.72261 -6.47792,18.54198 -12.89447,22.38402 -27.38872,21.37032 -160.34991,70.87461 -190.53155,74.28046 -8.67764,0.9792 -16.71292,-21.15341 -6.22303,-60.71664 8.20951,-30.96276 -11.76435,-48.82598 -28.13235,-56.68237 -16.368,-7.85631 -28.54299,-7.34067 -38.74924,-7.33697 -10.20622,0.004 -14.73863,4.1003 -14.73863,4.1003 0.86211,-0.49758 4.77883,1.71798 7.21852,4.58986 0.35905,0.42474 -6.55635,-0.21544 -6.20863,0.21921 0.48944,0.61217 4.15709,3.47429 4.60233,4.08609 1.29637,1.2695 2.6691,3.01148 4.02444,5.68758 -8.24088,-4.14856 -13.76958,-2.34954 -19.70118,-1.31943 1.69173,1.79705 8.27756,2.84337 9.51119,5.82927 1.10967,2.6868 -1.06545,3.92606 -1.06545,3.92606 -20.19655,37.59179 -22.09213,72.85539 -12.31785,86.24489 0,0 -55.27975,-66.31997 -94.30526,-113.28937 -12.41802,-14.945537 -24.26721,-26.57227 -28.97462,-34.007546 -3.65442,-5.771301 -2.73486,-17.396409 -1.31603,-23.557417 1.41846,-6.160932 -0.5862,-10.790248 -0.21165,-16.787376 0.37795,-5.997127 -2.61997,-13.562834 -4.88013,-12.101215 -2.26015,1.461694 -3.28478,2.851615 -4.40012,7.394645 -1.11534,4.543068 0.56882,16.213908 -4.03011,15.837505 -3.39137,-0.277417 -8.22728,-36.311115 -8.51188,-37.865408 -0.57033,-3.118148 -2.57159,-4.5194074 -4.47231,-4.4866389 z"
         id="path881"
         inkscape:connector-curvature="0"
         sodipodi:nodetypes="ccsccssccsscsczzcsscccscccscsccccczsscssscsccsscccscccccccccccsszzssscccsccsssscssscc" />
      <rect
         style="opacity:1;fill:url(#linearGradient895);fill-opacity:1;fill-rule:nonzero;stroke:none;stroke-width:135.03964233;stroke-linecap:round;stroke-linejoin:round;stroke-miterlimit:4;stroke-dasharray:none;stroke-dashoffset:0;stroke-opacity:1;paint-order:stroke fill markers"
         id="rect883"
         width="1228.4688"
         height="1026.438"
         x="-2.8171909e-014"
         y="-3.5749181e-014" />
      <circle
         r="209.42569"
         cy="735.12341"
         cx="951.12781"
         id="circle885"
         style="opacity:0.61180127;fill:url(#linearGradient898);fill-opacity:1;fill-rule:nonzero;stroke:none;stroke-width:52.76867676;stroke-linecap:round;stroke-linejoin:round;stroke-miterlimit:4;stroke-dasharray:none;stroke-dashoffset:0;stroke-opacity:1;paint-order:stroke fill markers" />
      <circle
         style="opacity:0.61180127;fill:url(#linearGradient901);fill-opacity:1;fill-rule:nonzero;stroke:none;stroke-width:52.76867676;stroke-linecap:round;stroke-linejoin:round;stroke-miterlimit:4;stroke-dasharray:none;stroke-dashoffset:0;stroke-opacity:1;paint-order:stroke fill markers"
         id="circle887"
         cx="-1169.3208"
         cy="274.49384"
         r="209.42569"
         transform="scale(-1,1)" />
      <circle
         transform="rotate(15)"
         style="opacity:0.61180127;fill:url(#linearGradient904);fill-opacity:1;fill-rule:nonzero;stroke:none;stroke-width:40.55140305;stroke-linecap:round;stroke-linejoin:round;stroke-miterlimit:4;stroke-dasharray:none;stroke-dashoffset:0;stroke-opacity:1;paint-order:stroke fill markers"
         id="circle889"
         cx="619.90057"
         cy="231.02"
         r="160.93837" />
    </pattern>
    <linearGradient
       inkscape:collect="always"
       xlink:href="#linearGradient842"
       id="linearGradient895"
       gradientUnits="userSpaceOnUse"
       x1="-112.43606"
       y1="230.43977"
       x2="212.59628"
       y2="230.43977"
       gradientTransform="matrix(3.7795275,0,0,3.7795275,424.95517,-357.73445)" />
    <linearGradient
       inkscape:collect="always"
       xlink:href="#linearGradient842"
       id="linearGradient898"
       gradientUnits="userSpaceOnUse"
       gradientTransform="matrix(3.7795275,0,0,3.7795275,2105.849,155.42304)"
       x1="-360.93054"
       y1="153.37904"
       x2="-250.10944"
       y2="153.37904" />
    <linearGradient
       inkscape:collect="always"
       xlink:href="#linearGradient842"
       id="linearGradient901"
       gradientUnits="userSpaceOnUse"
       gradientTransform="matrix(3.7795275,0,0,3.7795275,-14.599551,-305.20652)"
       x1="-360.93054"
       y1="153.37904"
       x2="-250.10944"
       y2="153.37904" />
    <linearGradient
       inkscape:collect="always"
       xlink:href="#linearGradient842"
       id="linearGradient904"
       gradientUnits="userSpaceOnUse"
       gradientTransform="matrix(2.9044718,0,0,2.9044718,1507.2747,-214.46508)"
       x1="-360.93054"
       y1="153.37904"
       x2="-250.10944"
       y2="153.37904" />
  </defs>
  <sodipodi:namedview
     id="base"
     pagecolor="#ffffff"
     bordercolor="#666666"
     borderopacity="1.0"
     inkscape:pageopacity="0.0"
     inkscape:pageshadow="2"
     inkscape:zoom="0.12374369"
     inkscape:cx="-1880.4306"
     inkscape:cy="670.5937"
     inkscape:document-units="px"
     inkscape:current-layer="layer1"
     showgrid="false"
     inkscape:window-width="1280"
     inkscape:window-height="778"
     inkscape:window-x="-8"
     inkscape:window-y="-8"
     inkscape:window-maximized="1"
     units="px" />
  <metadata
     id="metadata5">
    <rdf:RDF>
      <cc:Work
         rdf:about="">
        <dc:format>image/svg+xml</dc:format>
        <dc:type
           rdf:resource="http://purl.org/dc/dcmitype/StillImage" />
        <dc:title></dc:title>
      </cc:Work>
    </rdf:RDF>
  </metadata>
  <g
     inkscape:label="Layer 1"
     inkscape:groupmode="layer"
     id="layer1"
     transform="translate(0,-138.24998)">
    <path
       style="fill:#434343;fill-opacity:1;stroke:none;stroke-width:0.08469047px;stroke-linecap:butt;stroke-linejoin:miter;stroke-opacity:1"
       d="m -765.7292,0.78965261 c -0.57,0.01 -1.1056,0.50688999 -1.0174,1.38209999 0.166,1.647456 0.6391,7.650326 0.102,7.9743264 -0.6047,0.36483 -4.5115,-5.9949404 -5.4055,-7.3073564 -0.9285,-1.36315 -2.8996,-0.16787 -2.0409,1.296026 0.8264,1.40868 5.1542,8.2012104 4.4226,8.7314604 -0.7316,0.53024 -7.9323,-4.1504404 -9.0533,-4.3282704 -1.121,-0.17784 -1.0701,1.05085 -0.5078,1.45329 0.5623,0.4024404 7.8939,4.6439304 7.6477,5.2114304 -0.2462,0.56751 -5.1469,-0.42402 -6.7564,-0.73687 -1.6095,-0.31285 -2.1039,1.9637 -0.1217,2.20373 1.9822,0.24003 5.1231,1.11309 6.5565,1.97806 1.4334,0.86498 2.6612,2.13197 5.0886,3.46314 2.4273,1.33116 4.5271,4.77269 7.3236,8.53468 2.7964,3.76199 23.61322,34.64463 23.164,37.60221 -0.44922,2.95758 -6.09123,5.43786 -6.58573,16.64129 -0.4945,11.20342 7.88423,21.861371 8.51953,27.801201 1.3612,8.11759 -6.9602,17.22239 -6.2194,32.29559 0.6814,13.86338 7.09707,30.49848 11.5068,35.15119 3.45579,3.6462 7.44035,7.76276 23.13145,7.58262 14.98091,0.18178 25.48573,0.32988 35.57422,1.81986 5.46585,-0.11427 13.39046,11.37997 16.63887,10.0459 3.24837,-1.33407 -2.86791,-18.65068 -7.63587,-23.38926 -3.50929,-3.48767 -5.42379,-0.85096 -7.05396,0.0301 -1.29474,0.69975 -3.37267,2.80729 -5.8974,2.12518 -15.82382,-4.27509 -23.40326,-4.62795 -23.40326,-4.62795 0,0 8.52707,-2.70531 17.41406,-8.39965 8.88697,-5.69434 17.65533,-11.9516 21.27888,-11.98133 3.62355,-0.0298 15.44602,7.06465 19.0442,4.09636 2.99858,-2.47365 -8.52587,-14.92131 -12.77801,-17.97805 -4.25217,-3.05673 -5.97806,-0.95658 -7.29131,1.0788 -1.31326,2.03542 -2.18553,3.5369 -4.2873,4.55709 -2.10175,1.02019 -11.91667,4.0686 -18.94189,5.5325 -7.02521,1.4639 -16.41341,6.65368 -16.41341,6.65368 2.26688,-6.91279 7.05296,-13.604 6.35951,-25.38321 -0.69345,-11.77922 -10.25021,-20.39961 -10.68186,-32.989871 -0.15124,-4.41149 1.98957,-8.31733 3.52417,-11.44749 1.17164,-2.38985 11.50713,-5.3898 11.50713,-5.3898 l -3.24799,-2.9202 c -0.31862,-0.28646 4.2368,0.44467 4.49536,0.15379 0.13452,-0.15135 -1.36561,-1.00612 -2.11262,-1.69727 -0.86232,-0.79784 -0.90482,-1.9252 -0.90482,-1.9252 0,0 0.42376,-0.41247 0.60995,-0.60126 3.46755,-3.51596 29.53925,-18.33407 48.85063,-26.53484 3.02917,-0.10539 4.85381,-0.73922 6.68151,-0.87858 1.82764,-0.13937 5.32881,0.55485 7.38512,1.29692 2.0563,0.74206 2.69459,-1.72763 0.96683,-2.21484 -1.72777,-0.48722 -7.00765,-1.93257 -6.96872,-2.60874 0.0389,-0.67617 9.29702,-1.21035 10.04507,-1.32675 0.7481,-0.11639 1.40326,-1.29274 0.21962,-1.67125 -1.18364,-0.3785 -10.53011,0.64988 -10.98412,-0.22904 -0.45402,-0.87891 7.12424,-5.38769 8.62628,-6.35778 1.56094,-1.00811 0.22274,-3.14784 -1.35681,-2.27263 -1.52076,0.84263 -8.4741,5.13559 -8.88555,4.48091 -0.36538,-0.58137 3.05509,-6.21731 4.02916,-7.74624 0.97406,-1.52893 -0.87361,-2.83732 -2.05581,-1.27526 -0.27621,0.36498 -6.22493,9.0559 -7.13842,8.68554 -1.23871,-0.5022 0.71851,-3.30166 1.02231,-4.62227 0.30378,-1.32063 0.21987,-1.81379 -0.1742,-2.48655 -0.39404,-0.67274 -2.15537,0.89386 -2.83993,2.49425 -0.68457,1.60039 -1.80694,2.53643 -2.24317,4.31513 -0.43627,1.77869 -1.71395,4.9059 -3.41166,5.92244 -7.2466,5.65423 -42.42592,18.75224 -50.41148,19.65337 -2.29596,0.25908 -4.42196,-5.59684 -1.64651,-16.06461 2.1721,-8.19223 -3.11265,-12.91854 -7.44335,-14.99721 -4.3307,-2.07865 -7.552,-1.94222 -10.2524,-1.94124 -2.7004,0.001 -3.8996,1.08487 -3.8996,1.08487 0.2281,-0.13165 1.2644,0.45455 1.9099,1.2144 0.095,0.11238 -1.7347,-0.057 -1.6427,0.058 0.1295,0.16197 1.0999,0.91924 1.2177,1.08111 0.343,0.33589 0.7062,0.79679 1.0648,1.50484 -2.1804,-1.09764 -3.6432,-0.62165 -5.2126,-0.3491 0.4476,0.47547 2.1901,0.75231 2.5165,1.54233 0.2936,0.71088 -0.2819,1.03877 -0.2819,1.03877 -5.34367,9.94616 -5.84521,19.27632 -3.2591,22.81896 0,0 -14.6261,-17.54716 -24.9516,-29.97448 -3.2856,-3.95434 -6.4207,-7.03058 -7.6662,-8.99783 -0.9669,-1.52699 -0.7236,-4.6028 -0.3482,-6.2329 0.3753,-1.63008 -0.1551,-2.85492 -0.056,-4.4416604 0.1,-1.58674 -0.6932,-3.5885 -1.2912,-3.20178 -0.598,0.38674 -0.8691,0.75449 -1.1642,1.9565 -0.2951,1.20202 0.1505,4.2899304 -1.0663,4.1903404 -0.8973,-0.0734 -2.1768,-9.6073164 -2.2521,-10.0185564 -0.1509,-0.82501 -0.6804,-1.19575999 -1.1833,-1.18708999 z"
       id="path923"
       inkscape:connector-curvature="0"
       sodipodi:nodetypes="ccsccssccsscsczzcsscccscccscsccccczsscssscsccsscccscccccccccccsszzssscccsccsssscssscc"
       inkscape:export-xdpi="92"
       inkscape:export-ydpi="92" />
    <path
       style="opacity:0.61180127;fill:#434343;fill-opacity:1;fill-rule:nonzero;stroke:none;stroke-width:0.24637328;stroke-linecap:round;stroke-linejoin:round;stroke-miterlimit:4;stroke-dasharray:none;stroke-dashoffset:0;stroke-opacity:1;paint-order:stroke fill markers"
       d="m 149.39393,216.1509 c 0,18.02284 -1.55803,33.83343 -14.30211,46.5775 -12.74407,12.74407 -32.97691,24.32587 -50.999755,24.32587 -18.02284,0 -41.203844,-8.92844 -53.947921,-21.67251 C 17.400077,252.63768 9.356079,232.99447 9.356079,214.97163 c 0,-18.02284 7.45437,-34.71788 20.198433,-47.46196 12.744077,-12.74407 33.86136,-19.31398 51.884213,-19.31398 18.022841,0 29.705995,13.35069 42.450075,26.09476 12.74407,12.74408 25.50513,23.83761 25.50513,41.86045 z"
       id="path1728"
       inkscape:connector-curvature="0"
       sodipodi:nodetypes="sssssssss" />
  </g>
</svg>
